<?xml version="1.0" encoding="UTF-8" standalone="no"?><svg xmlns="http://www.w3.org/2000/svg" xmlns:xlink="http://www.w3.org/1999/xlink" contentStyleType="text/css" height="505.2083px" preserveAspectRatio="none" style="width:403px;height:505px;background:#FFFFFF;" version="1.1" viewBox="0 0 403 505" width="403.125px" zoomAndPan="magnify"><defs/><g><rect fill="none" height="28.7598" id="_title" rx="2.6042" ry="2.6042" style="stroke:none;stroke-width:1.0416666666666667;" width="227.0833" x="80.7448" y="5.2083"/><text fill="#000000" font-family="sans-serif" font-size="14.5833" font-weight="bold" lengthAdjust="spacing" textLength="216.6667" x="85.9531" y="25.5554">MedicAlert FHIR IPS structure</text><!--MD5=[536e464d8b1e54faa737ee1f4ae6355d]
class Bundle--><g id="elem_Bundle"><rect codeLine="8" fill="#87CEEB" height="79.4922" id="Bundle" rx="2.6042" ry="2.6042" style="stroke:#181818;stroke-width:0.5208333333333334;" width="139.5833" x="195.3125" y="47.5098"/><ellipse cx="238.125" cy="69.751" fill="#ADD1B2" rx="11.4583" ry="11.4583" style="stroke:#181818;stroke-width:1.0416666666666667;"/><path d="M236.9368,70.5811 L236.9368,73.1852 L241.4453,73.1852 L241.4453,72.2249 Q241.4453,71.5902 241.6895,71.3135 Q241.9499,71.0368 242.3405,71.0368 Q242.7311,71.0368 242.9753,71.3135 Q243.2194,71.5902 243.2194,72.2249 L243.2194,74.9593 L234.8861,74.9593 Q234.235,74.9593 233.9583,74.7152 Q233.6979,74.471 233.6979,74.0641 Q233.6979,73.6735 233.9746,73.4294 Q234.2513,73.1852 234.8861,73.1852 L235.1628,73.1852 L235.1628,66.2516 L234.8861,66.2516 Q234.235,66.2516 233.9583,66.0075 Q233.6979,65.7633 233.6979,65.3564 Q233.6979,64.9658 233.9583,64.7217 Q234.235,64.4775 234.8861,64.4775 L242.8288,64.4775 L242.8288,67.1794 Q242.8288,67.8141 242.5846,68.0908 Q242.3568,68.3512 241.9499,68.3512 Q241.5592,68.3512 241.3151,68.0908 Q241.071,67.8141 241.071,67.1794 L241.071,66.2516 L236.9368,66.2516 L236.9368,68.807 L238.4831,68.807 Q238.4831,68.1234 238.6133,67.9281 Q238.89,67.5049 239.3783,67.5049 Q239.7689,67.5049 240.013,67.7816 Q240.2572,68.042 240.2572,68.6768 L240.2572,70.7275 Q240.2572,71.2972 240.127,71.4925 Q239.8503,71.8994 239.3783,71.8994 Q238.89,71.8994 238.6133,71.4762 Q238.4831,71.2809 238.4831,70.5811 L236.9368,70.5811 Z " fill="#000000"/><text fill="#000000" font-family="sans-serif" font-size="12.5" font-style="italic" lengthAdjust="spacing" textLength="44.7917" x="259.2708" y="65.6942">«FHIR»</text><text fill="#000000" font-family="sans-serif" font-size="14.5833" lengthAdjust="spacing" textLength="45.8333" x="258.75" y="83.5795">Bundle</text><line style="stroke:#181818;stroke-width:0.5208333333333334;" x1="196.3542" x2="333.8542" y1="91.9922" y2="91.9922"/><ellipse cx="206.7708" cy="106.8929" fill="none" rx="3.125" ry="3.125" style="stroke:#038048;stroke-width:1.0416666666666667;"/><text fill="#000000" font-family="sans-serif" font-size="14.5833" font-weight="bold" lengthAdjust="spacing" textLength="31.25" x="216.1458" y="111.2976">type</text><text fill="#000000" font-family="sans-serif" font-size="14.5833" lengthAdjust="spacing" textLength="77.0833" x="251.5625" y="111.2976">= document</text><line style="stroke:#181818;stroke-width:0.5208333333333334;" x1="196.3542" x2="333.8542" y1="118.6686" y2="118.6686"/></g><!--MD5=[251454e98c15f29849fb35b1904d0020]
class Composition--><g id="elem_Composition"><rect codeLine="20" fill="#87CEEB" height="61.1491" id="Composition" rx="2.6042" ry="2.6042" style="stroke:#181818;stroke-width:0.5208333333333334;" width="114.5833" x="151.5625" y="189.1764"/><ellipse cx="167.1875" cy="211.4176" fill="#ADD1B2" rx="11.4583" ry="11.4583" style="stroke:#181818;stroke-width:1.0416666666666667;"/><path d="M165.9993,212.2477 L165.9993,214.8519 L170.5078,214.8519 L170.5078,213.8916 Q170.5078,213.2568 170.752,212.9801 Q171.0124,212.7035 171.403,212.7035 Q171.7936,212.7035 172.0378,212.9801 Q172.2819,213.2568 172.2819,213.8916 L172.2819,216.626 L163.9486,216.626 Q163.2975,216.626 163.0208,216.3818 Q162.7604,216.1377 162.7604,215.7308 Q162.7604,215.3402 163.0371,215.096 Q163.3138,214.8519 163.9486,214.8519 L164.2253,214.8519 L164.2253,207.9183 L163.9486,207.9183 Q163.2975,207.9183 163.0208,207.6742 Q162.7604,207.43 162.7604,207.0231 Q162.7604,206.6325 163.0208,206.3883 Q163.2975,206.1442 163.9486,206.1442 L171.8913,206.1442 L171.8913,208.846 Q171.8913,209.4808 171.6471,209.7575 Q171.4193,210.0179 171.0124,210.0179 Q170.6217,210.0179 170.3776,209.7575 Q170.1335,209.4808 170.1335,208.846 L170.1335,207.9183 L165.9993,207.9183 L165.9993,210.4736 L167.5456,210.4736 Q167.5456,209.79 167.6758,209.5947 Q167.9525,209.1715 168.4408,209.1715 Q168.8314,209.1715 169.0755,209.4482 Q169.3197,209.7087 169.3197,210.3434 L169.3197,212.3942 Q169.3197,212.9639 169.1895,213.1592 Q168.9128,213.5661 168.4408,213.5661 Q167.9525,213.5661 167.6758,213.1429 Q167.5456,212.9476 167.5456,212.2477 L165.9993,212.2477 Z " fill="#000000"/><text fill="#000000" font-family="sans-serif" font-size="12.5" font-style="italic" lengthAdjust="spacing" textLength="44.7917" x="200" y="207.3608">«FHIR»</text><text fill="#000000" font-family="sans-serif" font-size="14.5833" lengthAdjust="spacing" textLength="81.25" x="181.7708" y="225.2462">Composition</text><line style="stroke:#181818;stroke-width:0.5208333333333334;" x1="152.6042" x2="265.1042" y1="233.6589" y2="233.6589"/><line style="stroke:#181818;stroke-width:0.5208333333333334;" x1="152.6042" x2="265.1042" y1="241.9922" y2="241.9922"/></g><!--MD5=[f1a9144029453156c6878f92b753144a]
class AllergyIntolerance--><g id="elem_AllergyIntolerance"><rect codeLine="32" fill="#87CEEB" height="61.1491" id="AllergyIntolerance" rx="2.6042" ry="2.6042" style="stroke:#181818;stroke-width:0.5208333333333334;" width="151.0417" x="7.2917" y="313.1348"/><ellipse cx="22.9167" cy="335.376" fill="#ADD1B2" rx="11.4583" ry="11.4583" style="stroke:#181818;stroke-width:1.0416666666666667;"/><path d="M21.7285,336.2061 L21.7285,338.8102 L26.237,338.8102 L26.237,337.8499 Q26.237,337.2152 26.4811,336.9385 Q26.7415,336.6618 27.1322,336.6618 Q27.5228,336.6618 27.7669,336.9385 Q28.0111,337.2152 28.0111,337.8499 L28.0111,340.5843 L19.6777,340.5843 Q19.0267,340.5843 18.75,340.3402 Q18.4896,340.096 18.4896,339.6891 Q18.4896,339.2985 18.7663,339.0544 Q19.043,338.8102 19.6777,338.8102 L19.9544,338.8102 L19.9544,331.8766 L19.6777,331.8766 Q19.0267,331.8766 18.75,331.6325 Q18.4896,331.3883 18.4896,330.9814 Q18.4896,330.5908 18.75,330.3467 Q19.0267,330.1025 19.6777,330.1025 L27.6204,330.1025 L27.6204,332.8044 Q27.6204,333.4391 27.3763,333.7158 Q27.1484,333.9762 26.7415,333.9762 Q26.3509,333.9762 26.1068,333.7158 Q25.8626,333.4391 25.8626,332.8044 L25.8626,331.8766 L21.7285,331.8766 L21.7285,334.432 L23.2747,334.432 Q23.2747,333.7484 23.4049,333.5531 Q23.6816,333.1299 24.1699,333.1299 Q24.5605,333.1299 24.8047,333.4066 Q25.0488,333.667 25.0488,334.3018 L25.0488,336.3525 Q25.0488,336.9222 24.9186,337.1175 Q24.6419,337.5244 24.1699,337.5244 Q23.6816,337.5244 23.4049,337.1012 Q23.2747,336.9059 23.2747,336.2061 L21.7285,336.2061 Z " fill="#000000"/><text fill="#000000" font-family="sans-serif" font-size="12.5" font-style="italic" lengthAdjust="spacing" textLength="44.7917" x="73.9583" y="331.3192">«FHIR»</text><text fill="#000000" font-family="sans-serif" font-size="14.5833" lengthAdjust="spacing" textLength="117.7083" x="37.5" y="349.2045">AllergyIntolerance</text><line style="stroke:#181818;stroke-width:0.5208333333333334;" x1="8.3333" x2="157.2917" y1="357.6172" y2="357.6172"/><line style="stroke:#181818;stroke-width:0.5208333333333334;" x1="8.3333" x2="157.2917" y1="365.9505" y2="365.9505"/></g><!--MD5=[a030fa97ffb865708cae79f6847e8968]
class Condition--><g id="elem_Condition"><rect codeLine="41" fill="#87CEEB" height="61.1491" id="Condition" rx="2.6042" ry="2.6042" style="stroke:#181818;stroke-width:0.5208333333333334;" width="95.8333" x="269.2708" y="313.1348"/><ellipse cx="284.8958" cy="335.376" fill="#ADD1B2" rx="11.4583" ry="11.4583" style="stroke:#181818;stroke-width:1.0416666666666667;"/><path d="M283.7077,336.2061 L283.7077,338.8102 L288.2161,338.8102 L288.2161,337.8499 Q288.2161,337.2152 288.4603,336.9385 Q288.7207,336.6618 289.1113,336.6618 Q289.502,336.6618 289.7461,336.9385 Q289.9902,337.2152 289.9902,337.8499 L289.9902,340.5843 L281.6569,340.5843 Q281.0059,340.5843 280.7292,340.3402 Q280.4688,340.096 280.4688,339.6891 Q280.4688,339.2985 280.7454,339.0544 Q281.0221,338.8102 281.6569,338.8102 L281.9336,338.8102 L281.9336,331.8766 L281.6569,331.8766 Q281.0059,331.8766 280.7292,331.6325 Q280.4688,331.3883 280.4688,330.9814 Q280.4688,330.5908 280.7292,330.3467 Q281.0059,330.1025 281.6569,330.1025 L289.5996,330.1025 L289.5996,332.8044 Q289.5996,333.4391 289.3555,333.7158 Q289.1276,333.9762 288.7207,333.9762 Q288.3301,333.9762 288.0859,333.7158 Q287.8418,333.4391 287.8418,332.8044 L287.8418,331.8766 L283.7077,331.8766 L283.7077,334.432 L285.2539,334.432 Q285.2539,333.7484 285.3841,333.5531 Q285.6608,333.1299 286.1491,333.1299 Q286.5397,333.1299 286.7839,333.4066 Q287.028,333.667 287.028,334.3018 L287.028,336.3525 Q287.028,336.9222 286.8978,337.1175 Q286.6211,337.5244 286.1491,337.5244 Q285.6608,337.5244 285.3841,337.1012 Q285.2539,336.9059 285.2539,336.2061 L283.7077,336.2061 Z " fill="#000000"/><text fill="#000000" font-family="sans-serif" font-size="12.5" font-style="italic" lengthAdjust="spacing" textLength="44.7917" x="308.3333" y="331.3192">«FHIR»</text><text fill="#000000" font-family="sans-serif" font-size="14.5833" lengthAdjust="spacing" textLength="62.5" x="299.4792" y="349.2045">Condition</text><line style="stroke:#181818;stroke-width:0.5208333333333334;" x1="270.3125" x2="364.0625" y1="357.6172" y2="357.6172"/><line style="stroke:#181818;stroke-width:0.5208333333333334;" x1="270.3125" x2="364.0625" y1="365.9505" y2="365.9505"/></g><!--MD5=[9dd4eaa2771a2ff8dbee15cc1e732cab]
class Patient--><g id="elem_Patient"><rect codeLine="51" fill="#87CEEB" height="61.1491" id="Patient" rx="2.6042" ry="2.6042" style="stroke:#181818;stroke-width:0.5208333333333334;" width="79.1667" x="225.5208" y="437.0931"/><ellipse cx="241.1458" cy="459.3343" fill="#ADD1B2" rx="11.4583" ry="11.4583" style="stroke:#181818;stroke-width:1.0416666666666667;"/><path d="M239.9577,460.1644 L239.9577,462.7686 L244.4661,462.7686 L244.4661,461.8083 Q244.4661,461.1735 244.7103,460.8968 Q244.9707,460.6201 245.3613,460.6201 Q245.752,460.6201 245.9961,460.8968 Q246.2402,461.1735 246.2402,461.8083 L246.2402,464.5426 L237.9069,464.5426 Q237.2559,464.5426 236.9792,464.2985 Q236.7188,464.0544 236.7188,463.6475 Q236.7188,463.2568 236.9954,463.0127 Q237.2721,462.7686 237.9069,462.7686 L238.1836,462.7686 L238.1836,455.835 L237.9069,455.835 Q237.2559,455.835 236.9792,455.5908 Q236.7188,455.3467 236.7188,454.9398 Q236.7188,454.5492 236.9792,454.305 Q237.2559,454.0609 237.9069,454.0609 L245.8496,454.0609 L245.8496,456.7627 Q245.8496,457.3975 245.6055,457.6742 Q245.3776,457.9346 244.9707,457.9346 Q244.5801,457.9346 244.3359,457.6742 Q244.0918,457.3975 244.0918,456.7627 L244.0918,455.835 L239.9577,455.835 L239.9577,458.3903 L241.5039,458.3903 Q241.5039,457.7067 241.6341,457.5114 Q241.9108,457.0882 242.3991,457.0882 Q242.7897,457.0882 243.0339,457.3649 Q243.278,457.6253 243.278,458.2601 L243.278,460.3109 Q243.278,460.8805 243.1478,461.0758 Q242.8711,461.4827 242.3991,461.4827 Q241.9108,461.4827 241.6341,461.0596 Q241.5039,460.8643 241.5039,460.1644 L239.9577,460.1644 Z " fill="#000000"/><text fill="#000000" font-family="sans-serif" font-size="12.5" font-style="italic" lengthAdjust="spacing" textLength="44.7917" x="256.25" y="455.2775">«FHIR»</text><text fill="#000000" font-family="sans-serif" font-size="14.5833" lengthAdjust="spacing" textLength="45.8333" x="255.7292" y="473.1628">Patient</text><line style="stroke:#181818;stroke-width:0.5208333333333334;" x1="226.5625" x2="303.6458" y1="481.5755" y2="481.5755"/><line style="stroke:#181818;stroke-width:0.5208333333333334;" x1="226.5625" x2="303.6458" y1="489.9089" y2="489.9089"/></g><!--MD5=[793678bb50764c1b644e05874fbe77cc]
reverse link Bundle to Composition--><g id="link_Bundle_Composition"><path codeLine="67" d="M242.9896,139.5202 C235.7604,156.3223 227.9792,174.416 221.6771,189.0723 " fill="none" id="Bundle-backto-Composition" style="stroke:#181818;stroke-width:2.0833333333333335;"/><polygon fill="none" points="248.375,126.9993,242.0803,131.0981,243.4427,138.4851,249.7374,134.3863,248.375,126.9993" style="stroke:#181818;stroke-width:2.0833333333333335;"/></g><!--MD5=[43dedead91947375d6e097f586002333]
reverse link Bundle to Patient--><g id="link_Bundle_Patient"><path codeLine="68" d="M300.8229,138.2181 C329.6875,181.9889 368.0208,248.4889 383.8542,313.1348 C390.3542,339.666 395.8646,350.0618 383.8542,374.5931 C367.5,407.9993 332.5521,432.7806 304.7917,448.1868 " fill="none" id="Bundle-backto-Patient" style="stroke:#181818;stroke-width:2.0833333333333335;"/><polygon fill="none" points="293.1458,126.7702,293.1596,134.2817,300.0986,137.1581,300.0849,129.6466,293.1458,126.7702" style="stroke:#181818;stroke-width:2.0833333333333335;"/></g><!--MD5=[ba32e1c342015c5a15ae0fc8862f1ab7]
reverse link Bundle to Condition--><g id="link_Bundle_Condition"><path codeLine="69" d="M275.7292,140.1035 C286.3854,192.1764 302.4063,270.5202 311.0833,312.9473 " fill="none" id="Bundle-backto-Condition" style="stroke:#181818;stroke-width:2.0833333333333335;"/><polygon fill="none" points="273.0104,126.8118,270.1773,133.7687,275.5094,139.0595,278.3425,132.1027,273.0104,126.8118" style="stroke:#181818;stroke-width:2.0833333333333335;"/></g><!--MD5=[e270758151549abee28a96a69706696b]
reverse link Bundle to AllergyIntolerance--><g id="link_Bundle_AllergyIntolerance"><path codeLine="70" d="M187.7917,134.8848 C167.6354,150.1035 147.4792,168.4889 132.8125,189.1764 C105.9688,227.0514 92.9375,280.1764 87.0729,312.9993 " fill="none" id="Bundle-backto-AllergyIntolerance" style="stroke:#181818;stroke-width:2.0833333333333335;"/><polygon fill="none" points="198.9583,126.7598,191.4529,127.0643,188.8474,134.1095,196.3527,133.8049,198.9583,126.7598" style="stroke:#181818;stroke-width:2.0833333333333335;"/></g><!--MD5=[4296885d4dd788fa2162b781b9edba72]
link Composition to Patient--><g id="link_Composition_Patient"><path codeLine="73" d="M215.75,251.0931 C226.1979,296.7389 245.9792,383.1973 257.0625,431.6348 " fill="none" id="Composition-to-Patient" style="stroke:#181818;stroke-width:2.0833333333333335;"/><polygon fill="#181818" points="258.2396,436.7702,260.2109,426.7021,257.0782,431.693,252.0874,428.5603,258.2396,436.7702" style="stroke:#181818;stroke-width:2.0833333333333335;"/></g><!--MD5=[e6c5a70cea1b2e153663cd924d366ff5]
link Composition to AllergyIntolerance--><g id="link_Composition_AllergyIntolerance"><path codeLine="74" d="M178.0208,250.7598 C159.8646,268.3223 136.8333,290.5931 117.9688,308.8327 " fill="none" id="Composition-to-AllergyIntolerance" style="stroke:#181818;stroke-width:2.0833333333333335;"/><polygon fill="#181818" points="113.7604,312.8952,123.4012,309.387,117.5096,309.2799,117.6167,303.3883,113.7604,312.8952" style="stroke:#181818;stroke-width:2.0833333333333335;"/></g><!--MD5=[306955a65f729f0a2357d7ca088bde35]
link Composition to Condition--><g id="link_Composition_Condition"><path codeLine="75" d="M235.3542,250.7598 C250.9583,268.3223 270.7604,290.5931 286.9688,308.8327 " fill="none" id="Composition-to-Condition" style="stroke:#181818;stroke-width:2.0833333333333335;"/><polygon fill="#181818" points="290.5833,312.8952,287.4877,303.1141,287.1305,308.9959,281.2488,308.6387,290.5833,312.8952" style="stroke:#181818;stroke-width:2.0833333333333335;"/></g><!--MD5=[9c1b2b12a6d3ad35c7aea644dc8c6290]
link AllergyIntolerance to Patient--><g id="link_AllergyIntolerance_Patient"><path codeLine="76" d="M127.4063,374.7181 C155.8229,393.7181 192.4896,418.2285 220.8333,437.1868 " fill="none" id="AllergyIntolerance-to-Patient" style="stroke:#181818;stroke-width:2.0833333333333335;"/><polygon fill="#181818" points="225.3125,440.1764,219.8439,431.4962,220.9858,437.2771,215.2049,438.419,225.3125,440.1764" style="stroke:#181818;stroke-width:2.0833333333333335;"/></g><!--MD5=[c96bd6499f55cc54eff79b4ca74838ec]
link Condition to Patient--><g id="link_Condition_Patient"><path codeLine="77" d="M304.4479,374.7181 C297.0729,391.9785 287.75,413.8014 280.0208,431.8639 " fill="none" id="Condition-to-Patient" style="stroke:#181818;stroke-width:2.0833333333333335;"/><polygon fill="#181818" points="277.8958,436.8535,285.4186,429.8779,279.9475,432.0663,277.7591,426.5952,277.8958,436.8535" style="stroke:#181818;stroke-width:2.0833333333333335;"/></g><!--MD5=[30d55e940a6f64181eed6963aac81a30]
@startuml MedicAlert-FHIR-IPS
Title "MedicAlert FHIR IPS structure"
skinparam BoxPadding 6
skinparam ParticipantPadding 1
skinparam roundcorner 5
skinparam sequenceArrowThickness 2
skinparam dpi 100

entity Bundle <<FHIR>> #SkyBlue {
    + **type** = document
'    + **identifier**
'    + **timestamp**
'    ...
'    - - References - -
'    + **entry:Composition** -> Composition
'    + **entry:Patient** -> Patient
'    + **entry:AllergyIntolerance** -> AllergyIntolerance
'    + **entry:Condition** -> AllergyIntolerance
}

entity Composition <<FHIR>> #SkyBlue {
'    + **versionNumber**
'    + **author**
'    ...
'    - - References - -
'    + **subject** -> Patient
'    + **section:SectionAllergyIntolerance** -> AllergyIntolerance
'    + **section:SectionProblems** -> Condition
'    + **section:SectionAdvanceDirectives** -> DocumentReference

}

entity AllergyIntolerance <<FHIR>> #SkyBlue {
'    + **category**
'    + **code**
'    + **note**
 '   ...
'    - - Refereneces - -
'    + **subject** -> Patient
}

entity Condition <<FHIR>> #SkyBlue {  
'    + **category**
'    + **code**
'    + **severity**
'    + **note**
'    ...
'    - - References - -
'    + **subject** -> Patient 
}

entity Patient <<FHIR>> #SkyBlue {
'   + **identifier:NHI**
 '  + **identifier:MedicAlert id**
'   + **active**
 '  + **name**
'   + **telecom**
'   + **gender**
'   + **birthDate**
'   + **deceased[x]**
'   + **address**
'   + **contact**
'   + **communication**
'   + **managingOrganisation**
}

' Bundle contains other resources
Bundle o- - Composition
Bundle o- - Patient
Bundle o- - Condition
Bundle o- - AllergyIntolerance

' Resources Reference each other
Composition - -> Patient
Composition - -> AllergyIntolerance
Composition - -> Condition
AllergyIntolerance - -> Patient
Condition - -> Patient

@enduml

@startuml MedicAlert-FHIR-IPS
Title "MedicAlert FHIR IPS structure"
skinparam BoxPadding 6
skinparam ParticipantPadding 1
skinparam roundcorner 5
skinparam sequenceArrowThickness 2
skinparam dpi 100

entity Bundle <<FHIR>> #SkyBlue {
    + **type** = document
}

entity Composition <<FHIR>> #SkyBlue {

}

entity AllergyIntolerance <<FHIR>> #SkyBlue {
}

entity Condition <<FHIR>> #SkyBlue {  
}

entity Patient <<FHIR>> #SkyBlue {
}

Bundle o- - Composition
Bundle o- - Patient
Bundle o- - Condition
Bundle o- - AllergyIntolerance

Composition - -> Patient
Composition - -> AllergyIntolerance
Composition - -> Condition
AllergyIntolerance - -> Patient
Condition - -> Patient

@enduml

PlantUML version 1.2022.7(Tue Aug 23 05:01:30 NZST 2022)
(GPL source distribution)
Java Runtime: OpenJDK Runtime Environment
JVM: OpenJDK 64-Bit Server VM
Default Encoding: Cp1252
Language: en
Country: NZ
--></g></svg>